PathFileType	4	(X/Y/Z)	1H_nor_fast_right.trc
DataRate	CameraRate	NumFrames	NumMarkers	Units	OrigDataRate	OrigDataStartFrame	OrigNumFrames
250.00	250.00	8	18	mm	250.00	6925	9233
Frame#	Time	c7	r_should	r_elb_m	clavicle	r_upa	r_wri_m	l_upa	l_elb_l	l_low	l_wri_l	l_met	l_elb_m	r_elb_l	l_should	r_low	r_wri_l	r_met	l_wri_m
	X1	Y1	Z1	X2	Y2	Z2	X3	Y3	Z3	X4	Y4	Z4	X5	Y5	Z5	X6	Y6	Z6	X7	Y7	Z7	X8	Y8	Z8	X9	Y9	Z9	X10	Y10	Z10	X11	Y11	Z11	X12	Y12	Z12	X13	Y13	Z13	X14	Y14	Z14	X15	Y15	Z15	X16	Y16	Z16	X17	Y17	Z17	X18	Y18	Z18
6925	27.69600	1079.66138	1426.37708	131.02412	1130.92944	1382.89294	277.50787	1126.53125	1080.70850	386.17899	1197.96777	1296.57129	111.01416	1187.45044	1199.27124	370.65082	1265.44446	921.59375	294.32962	1090.41455	1144.87769	-97.92158	1100.36133	1037.40759	-111.76189	1112.79028	914.43658	-101.38141	1139.27466	799.21472	-73.50422	1127.42078	723.03961	-118.20841	1058.31287	1026.21423	-19.85693	1201.24072	1128.10449	397.41879	1091.24915	1360.13196	-44.38760	1253.31311	1044.14160	329.72949	1288.10364	974.30286	244.98164	1350.46460	929.00958	233.26421	1060.51013	790.26660	-78.87431
6926	27.70000	1079.72302	1426.37646	130.93008	1131.29761	1382.77417	277.44415	1127.04114	1080.21301	385.99713	1198.02539	1296.57397	110.80198	1188.02161	1198.94141	370.10455	1265.17798	919.01013	295.75766	1090.38000	1144.88672	-98.03867	1100.09070	1037.15369	-111.91717	1112.71716	914.42975	-101.49737	1138.90784	799.40271	-73.92406	1127.32739	723.02765	-118.33396	1058.27917	1026.22278	-19.96962	1201.95728	1127.34558	396.75729	1091.18701	1360.13269	-44.50301	1252.88440	1042.38354	329.33127	1288.23877	971.06860	245.80989	1350.26855	925.36670	234.65456	1060.44812	790.27026	-78.99586
6927	27.70400	1079.79773	1426.37915	130.84439	1131.68127	1382.65735	277.37875	1127.58264	1079.69543	386.05206	1198.08691	1296.57324	110.58740	1188.57288	1198.56665	369.55511	1264.90894	916.47858	297.20789	1090.34937	1144.89221	-98.14784	1099.96631	1037.09656	-112.04673	1112.64441	914.41992	-101.62498	1138.99426	799.20325	-73.80808	1127.23755	723.02148	-118.46250	1058.23560	1026.23132	-20.07530	1202.66907	1126.58936	396.10886	1091.12598	1360.13550	-44.61640	1252.89404	1038.94714	329.49622	1288.32312	967.84717	246.64020	1350.00708	921.73352	236.06563	1060.38428	790.28119	-79.12762
6928	27.70800	1079.88269	1426.37891	130.75819	1132.08923	1382.54309	277.31595	1128.05078	1079.19031	385.77139	1198.15405	1296.57129	110.36557	1189.10938	1198.15613	369.00040	1264.62671	914.03247	298.68115	1090.31104	1144.90027	-98.26238	1099.88452	1037.08545	-112.17038	1112.56433	914.41241	-101.75605	1138.45825	799.64374	-74.53707	1127.14673	723.02136	-118.59319	1058.19458	1026.24512	-20.17204	1203.36633	1125.84656	395.46149	1091.07019	1360.14282	-44.73581	1253.08984	1036.63379	329.53815	1288.40271	964.67688	247.51529	1349.71204	918.18036	237.49075	1060.32080	790.28259	-79.25108
6929	27.71200	1079.97205	1426.38184	130.66360	1132.50098	1382.43530	277.24283	1128.47510	1078.66968	385.40369	1198.22949	1296.57019	110.13306	1189.65759	1197.74841	368.43842	1264.31897	911.62109	300.12033	1090.26672	1144.90857	-98.37991	1099.80615	1037.08740	-112.28962	1112.48328	914.40344	-101.88645	1138.29114	799.79523	-74.85931	1127.24658	722.54468	-118.27035	1058.16602	1026.25879	-20.26740	1204.05554	1125.09106	394.81430	1091.02393	1360.15247	-44.85683	1253.33008	1034.64026	329.54849	1288.46765	961.57745	248.35541	1349.46143	914.71320	238.93234	1060.26392	790.28326	-79.36850
6930	27.71600	1080.06104	1426.38281	130.56699	1132.91406	1382.32520	277.17044	1128.88245	1078.17554	385.01740	1198.31262	1296.56628	109.90773	1190.21790	1197.35828	367.86713	1263.99146	909.21484	301.59097	1090.21997	1144.90771	-98.49097	1099.72241	1037.09863	-112.40869	1112.39648	914.39807	-102.02312	1138.21594	799.82678	-75.05268	1127.50696	722.08014	-118.00633	1058.13257	1026.26343	-20.34742	1204.71851	1124.34399	394.18549	1090.98108	1360.15576	-44.97863	1253.57581	1032.73193	329.56909	1288.53735	958.51495	249.23824	1349.28271	911.31879	240.41576	1060.20264	790.28107	-79.48661
6931	27.72000	1080.15393	1426.37781	130.47128	1133.33179	1382.21863	277.10278	1129.28735	1077.68628	384.61929	1198.39380	1296.55872	109.68451	1190.76306	1196.95898	367.29355	1263.66052	906.86774	303.02789	1090.16711	1144.90356	-98.60043	1099.64062	1037.09778	-112.53112	1112.29968	914.39532	-102.16898	1138.15100	799.82550	-75.20935	1127.41138	723.09052	-119.24334	1058.10388	1026.26489	-20.43142	1205.37292	1123.58716	393.55533	1090.94458	1360.15479	-45.10078	1253.80713	1030.84912	329.63733	1288.61377	955.48663	250.16600	1349.09509	907.93329	241.96863	1060.13538	790.26697	-79.60294
6932	27.72400	1080.23450	1426.38831	130.39481	1133.79529	1382.11108	277.01767	1129.69214	1077.18530	384.21039	1198.47791	1296.54602	109.46917	1191.29590	1196.55212	366.72717	1263.31421	904.55780	304.48422	1090.10535	1144.89612	-98.72150	1099.55908	1037.08264	-112.63754	1112.20435	914.38708	-102.30965	1138.09045	799.82056	-75.35817	1127.48901	723.13013	-119.53455	1058.06958	1026.27319	-20.51510	1206.03186	1122.85986	392.93011	1090.91882	1360.15698	-45.21764	1254.02380	1028.99915	329.71301	1288.69043	952.48663	251.08945	1348.84326	904.52814	243.63402	1060.06360	790.25983	-79.70968
